<svg width="14" height="16" viewBox="0 0 14 16" fill="none" xmlns="http://www.w3.org/2000/svg">
<g clip-path="url(#clip0_5_227)">
<path d="M0.411379 8.88C0.445665 8.88 0.479951 8.88 0.514236 8.88C0.719951 8.88 0.891379 8.76 0.994236 8.52C1.02852 8.44 1.81709 6.48 4.28567 6.48H9.29138V7.68C9.29138 7.92 9.39424 8.12 9.59995 8.24C9.66852 8.28 9.73709 8.28 9.80567 8.28C9.94281 8.28 10.0457 8.24 10.1485 8.12L13.5428 4.6C13.6457 4.48 13.7142 4.32 13.7142 4.16C13.7142 4 13.6457 3.84 13.5428 3.72L10.1485 0.200003C10.0114 3.1112e-06 9.80567 -0.0399969 9.59995 0.0400031C9.42852 0.120003 9.29138 0.360003 9.29138 0.600003V1.72H4.28567C3.15424 1.72 2.22852 2.16 1.50852 3C-0.0686208 4.88 -4.94253e-05 8.2 -4.94253e-05 8.32C-4.94253e-05 8.6 0.171379 8.84 0.411379 8.88ZM2.26281 3.84C2.77709 3.2 3.42852 2.88 4.28567 2.88H9.80567C10.08 2.88 10.32 2.6 10.32 2.28V1.92L12.4114 4.12L10.32 6.32V5.88C10.32 5.56 10.08 5.28 9.80567 5.28H4.28567C2.84566 5.28 1.85138 5.8 1.19995 6.44C1.33709 5.56 1.64566 4.56 2.26281 3.84Z" fill="#00AEEF"/>
<path d="M13.3027 7.12005C13.0627 7.08005 12.8227 7.20005 12.7199 7.48005C12.7199 7.52005 11.9313 9.52005 9.42845 9.52005H4.42274V8.32005C4.42274 8.08005 4.31988 7.88005 4.11416 7.76005C3.94274 7.68005 3.70274 7.72005 3.56559 7.88005L0.171307 11.4C0.0684494 11.52 -0.00012207 11.68 -0.00012207 11.88C-0.00012207 12.08 0.0684494 12.2 0.171307 12.32L3.56559 15.84C3.66845 15.96 3.77131 16 3.90845 16C3.97702 16 4.04559 16 4.11416 15.96C4.28559 15.88 4.42274 15.64 4.42274 15.4V14.28H9.42845C10.5599 14.28 11.4856 13.84 12.2056 13C13.7827 11.12 13.7142 7.80005 13.7142 7.68005C13.7142 7.40005 13.5427 7.16005 13.3027 7.12005ZM11.4513 12.16C10.937 12.8 10.2513 13.08 9.42845 13.08H3.90845C3.63416 13.08 3.39416 13.36 3.39416 13.68V14.04L1.30274 11.84L3.39416 9.64005V10.08C3.39416 10.4 3.63416 10.68 3.90845 10.68H9.42845C10.8685 10.68 11.8627 10.16 12.5142 9.52005C12.377 10.44 12.0685 11.44 11.4513 12.16Z" fill="#00AEEF"/>
</g>
<defs>
<clipPath id="clip0_5_227">
<rect width="13.7143" height="16" fill="white"/>
</clipPath>
</defs>
</svg>
