<svg width="16" height="16" viewBox="0 0 16 16" fill="none" xmlns="http://www.w3.org/2000/svg">
<path d="M8 0C9.58225 0 11.129 0.469206 12.4446 1.34826C13.7602 2.22731 14.7855 3.47672 15.391 4.93853C15.9965 6.40034 16.155 8.00888 15.8463 9.56073C15.5376 11.1126 14.7757 12.538 13.6569 13.6568C12.538 14.7757 11.1126 15.5376 9.56072 15.8463C8.00887 16.155 6.40033 15.9965 4.93852 15.391C3.47672 14.7855 2.22729 13.7601 1.34824 12.4446C0.469187 11.129 0 9.58225 0 8C0.00244306 5.87902 0.846082 3.84561 2.34584 2.34585C3.84561 0.846091 5.87901 0.00244306 8 0ZM8 14.7692C9.33882 14.7692 10.6476 14.3722 11.7608 13.6284C12.874 12.8846 13.7416 11.8274 14.254 10.5905C14.7663 9.35356 14.9003 7.99249 14.6392 6.67938C14.378 5.36628 13.7333 4.16013 12.7866 3.21343C11.8399 2.26674 10.6337 1.62203 9.32061 1.36084C8.00751 1.09965 6.64644 1.23371 5.40952 1.74606C4.17261 2.2584 3.1154 3.12602 2.37158 4.23922C1.62777 5.35241 1.23077 6.66117 1.23077 8C1.23272 9.79471 1.94653 11.5154 3.21559 12.7844C4.48464 14.0535 6.20528 14.7673 8 14.7692Z" fill="#E8A029"/>
<path d="M7.99999 3.73963C8.1632 3.73963 8.31973 3.80447 8.43513 3.91988C8.55054 4.03529 8.61537 4.1918 8.61537 4.35501V9.15132C8.61537 9.31453 8.55054 9.47107 8.43513 9.58648C8.31973 9.70188 8.1632 9.76671 7.99999 9.76671C7.83678 9.76671 7.68025 9.70188 7.56485 9.58648C7.44944 9.47107 7.3846 9.31453 7.3846 9.15132V4.35501C7.3846 4.1918 7.44944 4.03529 7.56485 3.91988C7.68025 3.80447 7.83678 3.73963 7.99999 3.73963Z" fill="#E8A029"/>
<path d="M7.99754 10.9545C8.0802 10.953 8.16216 10.9698 8.23755 11.0038C8.31098 11.0336 8.37788 11.0775 8.43447 11.133C8.54887 11.2496 8.61296 11.4065 8.61296 11.5699C8.61296 11.7333 8.54887 11.8902 8.43447 12.0068C8.37788 12.0624 8.31098 12.1062 8.23755 12.1361C8.14395 12.1743 8.04244 12.189 7.94185 12.179C7.84125 12.1691 7.74461 12.1347 7.66032 12.0789C7.57602 12.0231 7.50662 11.9476 7.45815 11.8589C7.40967 11.7702 7.38359 11.671 7.38216 11.5699C7.38329 11.4071 7.44848 11.2512 7.56364 11.136C7.67881 11.0209 7.83468 10.9557 7.99754 10.9545Z" fill="#E8A029"/>
</svg>
